<svg version="1.1" xmlns="http://www.w3.org/2000/svg" xmlns:xlink="http://www.w3.org/1999/xlink" x="0px" y="0px"
	 viewBox="0 0 512 512" style="enable-background:new 0 0 512 512;" xml:space="preserve">

	<path d="M271,332v60c16.538,0,30-13.462,30-30C301,345.462,287.538,332,271,332z"/>
	<polygon points="171.728,0 201.728,61 310.272,61 340.272,0 		"/>
	<path d="M211,272c0,16.538,13.462,30,30,30v-60C224.462,242,211,255.462,211,272z"/>
	<path d="M339.199,91h-58.927l19.146,38.291l-26.836,13.418L256,109.545l-16.582,33.164l-26.836-13.418L231.728,91h-58.927
				C96.731,153.32,31,282.704,31,360.506C31,511.502,200.351,512,256,512s225-0.498,225-151.494
				C481,282.704,415.269,153.32,339.199,91z M331,362c0,33.091-26.909,60-60,60v30h-30v-30c-33.091,0-60-26.909-60-60h30
				c0,16.538,13.462,30,30,30v-60c-33.091,0-60-26.909-60-60s26.909-60,60-60v-30h30v30c33.091,0,60,26.909,60,60h-30
				c0	
			-16.538-13.462-30-30-30v60C304.091,302,331,328.909,331,362z"/>
</svg>
